<svg width="16" height="17" viewBox="0 0 16 17" fill="none" xmlns="http://www.w3.org/2000/svg">
<path d="M8 0.5C9.06087 0.5 10.0783 0.921427 10.8284 1.67157C11.5786 2.42172 12 3.43913 12 4.5C12 5.56087 11.5786 6.57828 10.8284 7.32843C10.0783 8.07857 9.06087 8.5 8 8.5C6.93913 8.5 5.92172 8.07857 5.17157 7.32843C4.42143 6.57828 4 5.56087 4 4.5C4 3.43913 4.42143 2.42172 5.17157 1.67157C5.92172 0.921427 6.93913 0.5 8 0.5ZM8 10.5C12.42 10.5 16 12.29 16 14.5V16.5H0V14.5C0 12.29 3.58 10.5 8 10.5Z" fill="#091521"/>
</svg>
