<svg width="18" height="18" viewBox="0 0 18 18" fill="none" xmlns="http://www.w3.org/2000/svg">
<path d="M9 18C7.37109 18 5.86523 17.5986 4.48242 16.7959C3.09961 15.9932 2.00684 14.9004 1.2041 13.5176C0.401367 12.1348 0 10.6289 0 9C0 7.37109 0.401367 5.86523 1.2041 4.48242C2.00684 3.09961 3.09961 2.00684 4.48242 1.2041C5.86523 0.401367 7.37109 0 9 0C10.3125 0 11.2031 0.161133 11.6719 0.483398C12.1406 0.805664 12.375 1.39453 12.375 2.25C12.375 2.625 12.2871 2.98242 12.1113 3.32227C11.9355 3.66211 11.7422 3.9375 11.5312 4.14844C11.3203 4.35938 11.127 4.59668 10.9512 4.86035C10.7754 5.12402 10.6875 5.37891 10.6875 5.625C10.6875 6.75 11.25 7.3125 12.375 7.3125C12.6211 7.3125 12.876 7.22461 13.1396 7.04883C13.4033 6.87305 13.6406 6.67969 13.8516 6.46875C14.0625 6.25781 14.3379 6.06445 14.6777 5.88867C15.0176 5.71289 15.375 5.625 15.75 5.625C16.5938 5.625 17.1797 5.86523 17.5078 6.3457C17.8359 6.82617 18 7.71094 18 9C18 10.2188 17.7627 11.3848 17.2881 12.498C16.8135 13.6113 16.1748 14.5693 15.3721 15.3721C14.5693 16.1748 13.6113 16.8135 12.498 17.2881C11.3848 17.7627 10.2188 18 9 18ZM5.0625 14.625C5.53125 14.625 5.92969 14.4609 6.25781 14.1328C6.58594 13.8047 6.75 13.4062 6.75 12.9375C6.75 12.4688 6.58594 12.0703 6.25781 11.7422C5.92969 11.4141 5.53125 11.25 5.0625 11.25C4.59375 11.25 4.19531 11.4141 3.86719 11.7422C3.53906 12.0703 3.375 12.4688 3.375 12.9375C3.375 13.4062 3.53906 13.8047 3.86719 14.1328C4.19531 14.4609 4.59375 14.625 5.0625 14.625ZM3.9375 5.625C3.46875 5.625 3.07031 5.78906 2.74219 6.11719C2.41406 6.44531 2.25 6.84375 2.25 7.3125C2.25 7.78125 2.41406 8.17969 2.74219 8.50781C3.07031 8.83594 3.46875 9 3.9375 9C4.40625 9 4.80469 8.83594 5.13281 8.50781C5.46094 8.17969 5.625 7.78125 5.625 7.3125C5.625 6.84375 5.46094 6.44531 5.13281 6.11719C4.80469 5.78906 4.40625 5.625 3.9375 5.625ZM7.3125 2.25C6.84375 2.25 6.44531 2.41406 6.11719 2.74219C5.78906 3.07031 5.625 3.46875 5.625 3.9375C5.625 4.40625 5.78906 4.80469 6.11719 5.13281C6.44531 5.46094 6.84375 5.625 7.3125 5.625C7.78125 5.625 8.17969 5.46094 8.50781 5.13281C8.83594 4.80469 9 4.40625 9 3.9375C9 3.46875 8.83594 3.07031 8.50781 2.74219C8.17969 2.41406 7.78125 2.25 7.3125 2.25ZM10.6875 12.375C10.2188 12.375 9.82031 12.5391 9.49219 12.8672C9.16406 13.1953 9 13.5938 9 14.0625C9 14.5312 9.16406 14.9297 9.49219 15.2578C9.82031 15.5859 10.2188 15.75 10.6875 15.75C11.1562 15.75 11.5547 15.5859 11.8828 15.2578C12.2109 14.9297 12.375 14.5312 12.375 14.0625C12.375 13.5938 12.2109 13.1953 11.8828 12.8672C11.5547 12.5391 11.1562 12.375 10.6875 12.375ZM14.0625 9C13.5938 9 13.1953 9.16406 12.8672 9.49219C12.5391 9.82031 12.375 10.2188 12.375 10.6875C12.375 11.1562 12.5391 11.5547 12.8672 11.8828C13.1953 12.2109 13.5938 12.375 14.0625 12.375C14.5312 12.375 14.9297 12.2109 15.2578 11.8828C15.5859 11.5547 15.75 11.1562 15.75 10.6875C15.75 10.2188 15.5859 9.82031 15.2578 9.49219C14.9297 9.16406 14.5312 9 14.0625 9Z" fill="#091521"/>
</svg>
