<svg width="18" height="18" viewBox="0 0 18 18" fill="none" xmlns="http://www.w3.org/2000/svg">
<path d="M5.51831 0L2.17775 5.99754H0.899841C0.761518 5.99769 0.625088 6.03053 0.501127 6.09349C0.377166 6.15646 0.269004 6.24787 0.185025 6.36063C0.101045 6.47339 0.0435054 6.60448 0.0168651 6.74373C-0.00977525 6.88299 -0.00480015 7.02666 0.0314044 7.16362L2.55032 16.6391C2.65473 17.0297 2.88119 17.3744 3.19494 17.6202C3.50869 17.866 3.89241 17.9995 4.2872 18H13.7122C14.5204 18 15.2349 17.4414 15.4491 16.6382L17.968 7.1627C18.0046 7.02569 18.0099 6.88184 17.9834 6.7424C17.9568 6.60296 17.8992 6.47171 17.815 6.35889C17.7309 6.24608 17.6224 6.15476 17.4981 6.09207C17.3739 6.02939 17.2371 5.99703 17.0987 5.99754H15.8208L12.4802 0L10.9179 0.91588L13.7482 5.99754H4.2503L7.08059 0.91588L5.51831 0ZM10.7991 9.6906H12.599V14.3069H10.7991V9.6906ZM5.39952 9.6906H7.19938V14.3069H5.39952V9.6906Z" fill="#091521"/>
</svg>
