<svg width="18" height="20" viewBox="0 0 18 20" fill="none" xmlns="http://www.w3.org/2000/svg">
<path d="M0 5.1604H6.79688V6.97131H0V5.1604Z" fill="#004ED6"/>
<path d="M11.2031 5.16016H18V6.97107H11.2031V5.16016Z" fill="#004ED6"/>
<path d="M8.20312 5.16016H9.79687V6.97107H8.20312V5.16016Z" fill="#004ED6"/>
<path d="M8.20312 8.41357H9.79687V20.0001H8.20312V8.41357Z" fill="#004ED6"/>
<path d="M11.2031 8.41357H17.0592V20.0001H11.2031V8.41357Z" fill="#004ED6"/>
<path d="M12.5669 3.71793C12.9655 3.32481 13.2138 2.77274 13.2138 2.16082C13.2136 0.948606 12.2362 -0.00081678 11.107 5.27283e-07C9.94343 5.27283e-07 9.00021 0.967404 9.00021 2.16082C9.00021 0.967404 8.05699 5.27283e-07 6.89342 5.27283e-07C5.71146 0.000240912 4.78578 1.00274 4.78662 2.16082C4.78676 2.77856 5.04097 3.32764 5.43936 3.71793H12.5669Z" fill="#004ED6"/>
<path d="M0.941162 8.41357H6.79726V20.0001H0.941162V8.41357Z" fill="#004ED6"/>
</svg>
