<svg width="18" height="18" viewBox="0 0 18 18" fill="none" xmlns="http://www.w3.org/2000/svg">
<path fill-rule="evenodd" clip-rule="evenodd" d="M17.0005 4.19014C17.0266 4.17598 17.0483 4.15572 17.0633 4.13137C17.0784 4.10701 17.0863 4.07942 17.0863 4.05133C17.0863 4.02325 17.0784 3.99565 17.0633 3.9713C17.0483 3.94695 17.0266 3.92668 17.0005 3.91253L10.3915 0.347434C9.96867 0.119853 9.48856 0 8.99978 0C8.51101 0 8.0309 0.119853 7.60803 0.347434L1.00039 3.91253C0.974259 3.92668 0.952583 3.94695 0.937518 3.9713C0.922453 3.99565 0.914526 4.02325 0.914526 4.05133C0.914526 4.07942 0.922453 4.10701 0.937518 4.13137C0.952583 4.15572 0.974259 4.17598 1.00039 4.19014L8.91346 8.51212C8.94008 8.52668 8.97041 8.53436 9.0013 8.53436C9.03219 8.53436 9.06252 8.52668 9.08913 8.51212L17.0005 4.19014ZM0.259619 5.2833C0.233226 5.26915 0.203276 5.26172 0.172799 5.26176C0.142323 5.26181 0.112399 5.26933 0.0860545 5.28355C0.0597101 5.29778 0.0378792 5.31822 0.0227692 5.34279C0.00765922 5.36737 -0.000194053 5.39521 3.64236e-06 5.42351V12.4095C0.00065688 12.7461 0.096221 13.0768 0.277192 13.3685C0.458163 13.6602 0.718234 13.9029 1.03154 14.0723L8.04808 17.9785C8.07438 17.9926 8.10421 18 8.13457 18C8.16494 18 8.19477 17.9926 8.22108 17.9785C8.24738 17.9644 8.26924 17.9442 8.28444 17.9198C8.29964 17.8954 8.30766 17.8677 8.30769 17.8395V9.73424C8.30766 9.70606 8.29965 9.67839 8.28446 9.65399C8.26927 9.62959 8.24744 9.60933 8.22116 9.59524L0.259619 5.2833ZM9.69231 17.8374V9.76234C9.69242 9.73422 9.70047 9.70663 9.71565 9.68231C9.73084 9.65799 9.75263 9.63779 9.77885 9.62373L17.7404 5.28487C17.7667 5.27079 17.7964 5.26337 17.8268 5.26334C17.8571 5.26332 17.8869 5.27069 17.9132 5.28473C17.9395 5.29877 17.9614 5.31898 17.9766 5.34333C17.9918 5.36768 17.9999 5.39532 18 5.42348V12.4094C17.9989 12.7458 17.9031 13.076 17.7221 13.3674C17.5411 13.6587 17.2811 13.901 16.968 14.0703L9.95193 17.9764C9.92563 17.9905 9.8958 17.998 9.86543 17.998C9.83507 17.998 9.80523 17.9906 9.77892 17.9765C9.75262 17.9624 9.73077 17.9421 9.71556 17.9177C9.70036 17.8933 9.69234 17.8656 9.69231 17.8374Z" fill="#091521"/>
</svg>
