<svg width="20" height="20" viewBox="0 0 20 20" fill="none" xmlns="http://www.w3.org/2000/svg">
<g clip-path="url(#clip0_1343:17664)">
<path d="M17.8556 1.8141C15.524 -0.518332 11.6976 -0.677999 9.1767 1.78072C6.41174 4.47747 6.77101 8.84369 9.71449 11.1017C9.59976 11.3003 9.46208 11.4847 9.30354 11.6524C8.86187 12.1191 9.18296 12.8954 9.84299 12.8932C10.5831 12.8907 11.2961 12.6316 11.8702 12.1668C15.8772 13.2432 19.6853 10.0955 19.668 6.1623C19.6609 4.52015 19.0171 2.97562 17.8556 1.8141ZM13.4452 10.682C10.9607 10.682 8.93931 8.66061 8.93931 6.17607C8.93931 3.69152 10.9607 1.67016 13.4452 1.67016C15.9298 1.67016 17.9511 3.69152 17.9511 6.17607C17.9511 8.66061 15.9298 10.682 13.4452 10.682Z" fill="#004ED6"/>
<path d="M13.4453 2.33765C11.3288 2.33765 9.60693 4.05953 9.60693 6.17601C9.60693 8.2925 11.3288 10.0144 13.4453 10.0144C15.5618 10.0144 17.2837 8.2925 17.2837 6.17601C17.2837 4.05953 15.5618 2.33765 13.4453 2.33765ZM12.8195 7.38593C13.0038 7.38593 13.1532 7.53538 13.1532 7.7197C13.1532 7.90403 13.0038 8.05348 12.8195 8.05348H11.2758C11.0915 8.05348 10.942 7.90403 10.942 7.7197V7.20386C10.942 6.59319 11.4388 6.09637 12.0495 6.09637C12.2921 6.09637 12.4895 5.89903 12.4895 5.65642C12.4895 5.41381 12.2921 5.21646 12.0495 5.21646H11.2758C11.0915 5.21646 10.942 5.06702 10.942 4.88269C10.942 4.69837 11.0915 4.54892 11.2758 4.54892H12.0495C12.6602 4.54892 13.157 5.04574 13.157 5.65642C13.157 6.26709 12.6602 6.76391 12.0495 6.76391C11.8069 6.76391 11.6096 6.96125 11.6096 7.20386V7.38593H12.8195ZM15.74 7.09101V7.7197C15.74 7.90403 15.5905 8.05348 15.4062 8.05348C15.2219 8.05348 15.0724 7.90403 15.0724 7.7197V7.09388H13.8417C13.6346 7.09388 13.4776 6.90714 13.5127 6.70341L13.8351 4.83354C13.8664 4.65189 14.039 4.53011 14.2207 4.56135C14.4024 4.59269 14.5243 4.76533 14.4929 4.94699L14.2378 6.42638H15.0724V4.88269C15.0724 4.69837 15.2218 4.54892 15.4062 4.54892C15.5905 4.54892 15.7399 4.69837 15.7399 4.88269V6.42926C15.9045 6.44983 16.032 6.58997 16.032 6.76015C16.032 6.93034 15.9046 7.07044 15.74 7.09101Z" fill="#004ED6"/>
<path d="M6.22209 10.0203C6.12946 10.1138 5.97368 10.0964 5.90237 9.98575C4.90895 8.44406 3.61684 7.17769 2.14462 6.23266C2.03664 6.16336 2.01127 6.00799 2.11625 5.90611C2.63455 5.40312 3.42004 5.29406 4.02792 5.64201C5.05301 6.22778 5.90371 7.07848 6.48864 8.10149C6.82429 8.68884 6.76743 9.46987 6.22209 10.0203Z" fill="#004ED6"/>
<path d="M13.4567 19.0285C7.32347 23.1917 -2.85833 13.0018 1.30321 6.87089C1.40447 6.72174 1.60669 6.68139 1.75889 6.77802C3.49158 7.87783 4.42747 9.0185 5.44422 10.5263C5.51014 10.6241 5.51928 10.7489 5.4695 10.8558C4.57596 12.7744 7.56583 15.7556 9.47888 14.8583C9.58089 14.8104 9.69988 14.8168 9.79584 14.8759C10.3509 15.2178 12.1448 16.36 13.5511 18.5751C13.6472 18.7264 13.605 18.9278 13.4567 19.0285Z" fill="#004ED6"/>
<path d="M14.4241 18.2139C14.318 18.3228 14.1637 18.2941 14.0955 18.1873C13.1239 16.6678 11.8193 15.3747 10.343 14.4297C10.2385 14.3629 10.2078 14.2103 10.3108 14.1073C10.8223 13.5958 11.6096 13.4878 12.2287 13.8416C13.2517 14.4265 14.102 15.2772 14.6882 16.3023C15.0371 16.9122 14.9261 17.6983 14.4241 18.2139Z" fill="#004ED6"/>
</g>
<defs>
<clipPath id="clip0_1343:17664">
<rect width="20" height="20" fill="white"/>
</clipPath>
</defs>
</svg>
