<svg width="18" height="18" viewBox="0 0 18 18" fill="none" xmlns="http://www.w3.org/2000/svg">
<path d="M15.3819 7.29142L9.75642 2.17718C9.54979 1.98797 9.27978 1.88304 8.99961 1.88306C8.71944 1.88308 8.44945 1.98805 8.24284 2.17728L2.61832 7.29138C2.50244 7.39691 2.40984 7.52544 2.34644 7.66877C2.28303 7.8121 2.25021 7.96707 2.25008 8.1238V14.5992C2.24685 14.882 2.34715 15.1561 2.53207 15.37C2.63743 15.4897 2.76715 15.5856 2.91257 15.6511C3.05798 15.7166 3.21572 15.7503 3.37522 15.7499H6.7476C6.89679 15.7499 7.03986 15.6907 7.14535 15.5852C7.25084 15.4797 7.3101 15.3366 7.3101 15.1874V11.8119C7.3101 11.6627 7.36937 11.5197 7.47486 11.4142C7.58035 11.3087 7.72342 11.2494 7.8726 11.2494H10.1226C10.2718 11.2494 10.4149 11.3087 10.5204 11.4142C10.6258 11.5197 10.6851 11.6627 10.6851 11.8119V15.1874C10.6851 15.3366 10.7444 15.4797 10.8499 15.5852C10.9553 15.6907 11.0984 15.7499 11.2476 15.7499H14.6266C14.8115 15.7523 14.9938 15.7074 15.1564 15.6194C15.3358 15.5226 15.4857 15.379 15.5902 15.204C15.6947 15.0289 15.75 14.8288 15.7501 14.6249V8.12383C15.7499 7.96711 15.7171 7.81215 15.6537 7.66882C15.5903 7.5255 15.4977 7.39696 15.3819 7.29142Z" fill="#929DAB"/>
</svg>
