<svg width="18" height="18" viewBox="0 0 18 18" fill="none" xmlns="http://www.w3.org/2000/svg">
<path d="M7.00511 5H10.9949L11.8815 2.93333C12.0477 2.53333 12.0477 2 11.8261 1.66667C11.6044 1.33333 11.272 1 10.8841 1H7.11594C6.72805 1 6.39557 1.26667 6.17391 1.6C5.95226 1.93333 5.95226 2.46667 6.1185 2.86667L7.00511 5Z" fill="#929DAB"/>
<path d="M11.5517 10.4898H9.05208C8.73962 10.4898 8.53132 10.2653 8.53132 9.92857C8.53132 9.59184 8.73962 9.36735 9.05208 9.36735H11.3434L10.7185 6H7.38565L6.03168 13.1837C5.92752 13.7449 6.08375 14.3061 6.44828 14.699L8.27094 16.6633C8.47924 16.8878 8.73962 17 9 17C9.26038 17 9.52076 16.8878 9.72906 16.6633L11.5517 14.699C11.9162 14.3061 12.0725 13.7449 11.9683 13.1837L11.5517 10.4898Z" fill="#929DAB"/>
</svg>
