<svg width="18" height="18" viewBox="0 0 18 18" fill="none" xmlns="http://www.w3.org/2000/svg">
<path d="M16.2963 9.48048C16.3004 9.45169 16.3022 9.42263 16.3018 9.39355C16.3088 9.26323 16.3123 9.13204 16.3125 9C16.3141 7.33414 15.744 5.71817 14.6976 4.422C14.6705 4.37788 14.6375 4.33771 14.5995 4.30262C13.823 3.37757 12.8305 2.65822 11.7097 2.20825C11.6838 2.19569 11.6569 2.18515 11.6293 2.17674C9.93709 1.52441 8.06282 1.52442 6.37063 2.17677C6.34309 2.18519 6.31623 2.19571 6.2903 2.20825C5.16954 2.65821 4.17701 3.37755 3.40056 4.30259C3.3625 4.33768 3.32947 4.37787 3.3024 4.422C2.25599 5.71818 1.68595 7.33414 1.6875 9C1.6875 9.13218 1.69107 9.26351 1.6982 9.394C1.69781 9.42282 1.69964 9.45163 1.70367 9.48017C1.78188 10.6891 2.16122 11.8593 2.80717 12.8841C2.8271 12.9255 2.85204 12.9643 2.88143 12.9997C3.86939 14.508 5.37804 15.5999 7.11957 16.067C7.12713 16.0695 7.13494 16.071 7.1426 16.0732C8.36025 16.3923 9.63954 16.3923 10.8572 16.0732C10.8649 16.071 10.8728 16.0695 10.8805 16.067C12.622 15.5998 14.1306 14.508 15.1186 12.9997C15.148 12.9643 15.1729 12.9255 15.1928 12.8841C15.8387 11.8594 16.2181 10.6893 16.2963 9.48048ZM4.81917 8.23302L5.74502 8.53384L6.64066 11.2904L6.06847 12.0779L3.63301 12.0767C3.20679 11.3365 2.93959 10.5156 2.84848 9.66639L4.81917 8.23302ZM13.1808 8.23302L15.1515 9.66639C15.0604 10.5156 14.7932 11.3365 14.367 12.0767L11.9315 12.0779L11.3593 11.2904L12.255 8.53384L13.1808 8.23302ZM13.5839 4.8483L12.8332 7.16309L11.9073 7.46391L9.5625 5.76027V4.78678L11.5344 3.35571C12.3128 3.70721 13.0105 4.2153 13.5839 4.8483ZM6.46561 3.35571L8.4375 4.78678V5.76027L6.09267 7.46391L5.16683 7.16309L4.41608 4.8483C4.9895 4.2153 5.68718 3.70721 6.46561 3.35571ZM7.73302 15.0569L6.97861 12.7392L7.5508 11.9516H10.4492L11.0214 12.7392L10.267 15.0569C9.43132 15.231 8.5687 15.231 7.73302 15.0569Z" fill="#929DAB"/>
</svg>
