<svg width="18" height="18" viewBox="0 0 18 18" fill="none" xmlns="http://www.w3.org/2000/svg">
<path d="M9.27548 1.69312C8.45977 2.83867 8.43739 3.92892 8.43725 3.9405C8.43807 4.08941 8.4979 4.23193 8.60364 4.3368C8.70937 4.44167 8.85238 4.50033 9.0013 4.49992C9.15022 4.49951 9.29289 4.44006 9.39805 4.33461C9.50321 4.22917 9.56226 4.08632 9.56225 3.9374C9.56225 3.78822 9.62152 3.64514 9.72701 3.53965C9.83249 3.43416 9.97557 3.3749 10.1248 3.3749C10.2739 3.3749 10.417 3.43416 10.5225 3.53965C10.628 3.64514 10.6873 3.78822 10.6873 3.9374C10.6873 4.38495 10.5095 4.81418 10.193 5.13064C9.87653 5.44711 9.44731 5.6249 8.99975 5.6249C8.5522 5.6249 8.12298 5.44711 7.80651 5.13064C7.49004 4.81418 7.31225 4.38495 7.31225 3.9374C7.31225 3.88616 7.32104 2.92316 7.91533 1.76793C6.05444 2.04569 4.37208 3.02965 3.2177 4.51541C2.06333 6.00117 1.52568 7.87452 1.71643 9.74634C1.90719 11.6181 2.81169 13.3445 4.24205 14.5669C5.67241 15.7892 7.51867 16.4136 9.39734 16.3103C11.276 16.2069 13.0427 15.3838 14.3303 14.012C15.618 12.6401 16.3277 10.825 16.312 8.94353C16.2963 7.06209 15.5565 5.259 14.2461 3.90881C12.9357 2.55862 11.1556 1.76511 9.27548 1.69312V1.69312ZM5.62475 8.9999C5.62475 8.83302 5.67424 8.66989 5.76695 8.53114C5.85966 8.39239 5.99144 8.28424 6.14561 8.22038C6.29979 8.15652 6.46944 8.13981 6.63311 8.17236C6.79678 8.20492 6.94712 8.28528 7.06512 8.40328C7.18313 8.52128 7.26348 8.67162 7.29604 8.83529C7.3286 8.99897 7.31189 9.16861 7.24803 9.32279C7.18417 9.47697 7.07602 9.60874 6.93727 9.70145C6.79851 9.79417 6.63538 9.84365 6.4685 9.84365C6.24473 9.84365 6.03012 9.75476 5.87188 9.59652C5.71365 9.43829 5.62475 9.22368 5.62475 8.9999ZM11.1771 12.281C10.5316 12.7091 9.77432 12.9374 8.99982 12.9374C8.22531 12.9374 7.46798 12.7091 6.8225 12.2811C6.76099 12.2402 6.70813 12.1876 6.66695 12.1263C6.62576 12.065 6.59706 11.9961 6.58248 11.9237C6.5679 11.8513 6.56772 11.7767 6.58196 11.7042C6.5962 11.6318 6.62457 11.5628 6.66547 11.5013C6.74805 11.377 6.87661 11.2907 7.02286 11.2613C7.09527 11.2467 7.16985 11.2465 7.24233 11.2607C7.31481 11.275 7.38378 11.3034 7.44529 11.3442C7.90625 11.6496 8.44692 11.8124 8.99983 11.8124C9.55275 11.8124 10.0934 11.6495 10.5544 11.3442C10.6159 11.3033 10.6848 11.2749 10.7573 11.2607C10.8298 11.2464 10.9044 11.2466 10.9768 11.2612C11.0492 11.2758 11.118 11.3045 11.1793 11.3457C11.2407 11.3869 11.2933 11.4397 11.3342 11.5012C11.375 11.5627 11.4034 11.6317 11.4177 11.7042C11.4319 11.7767 11.4317 11.8512 11.4171 11.9237C11.4026 11.9961 11.3738 12.0649 11.3327 12.1262C11.2915 12.1875 11.2386 12.2401 11.1771 12.281ZM11.531 9.84365C11.3641 9.84365 11.201 9.79417 11.0622 9.70145C10.9235 9.60874 10.8153 9.47697 10.7515 9.32279C10.6876 9.16861 10.6709 8.99897 10.7035 8.83529C10.736 8.67162 10.8164 8.52128 10.9344 8.40328C11.0524 8.28528 11.2027 8.20492 11.3664 8.17236C11.5301 8.13981 11.6997 8.15652 11.8539 8.22038C12.0081 8.28424 12.1398 8.39239 12.2326 8.53114C12.3253 8.66989 12.3748 8.83302 12.3748 8.9999C12.3748 9.22368 12.2859 9.43829 12.1276 9.59652C11.9694 9.75476 11.7548 9.84365 11.531 9.84365Z" fill="#929DAB"/>
</svg>
