<svg width="17" height="18" viewBox="0 0 17 18" fill="none" xmlns="http://www.w3.org/2000/svg">
<path d="M8.5 17.5C6.96159 17.5 5.53939 17.1209 4.2334 16.3628C2.92741 15.6047 1.89535 14.5726 1.13721 13.2666C0.379069 11.9606 0 10.5384 0 9C0 7.46159 0.379069 6.03939 1.13721 4.7334C1.89535 3.42741 2.92741 2.39535 4.2334 1.63721C5.53939 0.879069 6.96159 0.5 8.5 0.5C9.73958 0.5 10.5807 0.652181 11.0234 0.956543C11.4661 1.2609 11.6875 1.81706 11.6875 2.625C11.6875 2.97917 11.6045 3.31673 11.4385 3.6377C11.2725 3.95866 11.0898 4.21875 10.8906 4.41797C10.6914 4.61719 10.5088 4.84131 10.3428 5.09033C10.1768 5.33936 10.0938 5.58008 10.0938 5.8125C10.0938 6.875 10.625 7.40625 11.6875 7.40625C11.9199 7.40625 12.1606 7.32324 12.4097 7.15723C12.6587 6.99121 12.8828 6.80859 13.082 6.60938C13.2812 6.41016 13.5413 6.22754 13.8623 6.06152C14.1833 5.89551 14.5208 5.8125 14.875 5.8125C15.6719 5.8125 16.2253 6.03939 16.5352 6.49316C16.8451 6.94694 17 7.78255 17 9C17 10.151 16.7759 11.2523 16.3276 12.3037C15.8794 13.3551 15.2762 14.2599 14.5181 15.0181C13.7599 15.7762 12.8551 16.3794 11.8037 16.8276C10.7523 17.2759 9.65104 17.5 8.5 17.5ZM4.78125 14.3125C5.22396 14.3125 5.60026 14.1576 5.91016 13.8477C6.22005 13.5378 6.375 13.1615 6.375 12.7188C6.375 12.276 6.22005 11.8997 5.91016 11.5898C5.60026 11.2799 5.22396 11.125 4.78125 11.125C4.33854 11.125 3.96224 11.2799 3.65234 11.5898C3.34245 11.8997 3.1875 12.276 3.1875 12.7188C3.1875 13.1615 3.34245 13.5378 3.65234 13.8477C3.96224 14.1576 4.33854 14.3125 4.78125 14.3125ZM3.71875 5.8125C3.27604 5.8125 2.89974 5.96745 2.58984 6.27734C2.27995 6.58724 2.125 6.96354 2.125 7.40625C2.125 7.84896 2.27995 8.22526 2.58984 8.53516C2.89974 8.84505 3.27604 9 3.71875 9C4.16146 9 4.53776 8.84505 4.84766 8.53516C5.15755 8.22526 5.3125 7.84896 5.3125 7.40625C5.3125 6.96354 5.15755 6.58724 4.84766 6.27734C4.53776 5.96745 4.16146 5.8125 3.71875 5.8125ZM6.90625 2.625C6.46354 2.625 6.08724 2.77995 5.77734 3.08984C5.46745 3.39974 5.3125 3.77604 5.3125 4.21875C5.3125 4.66146 5.46745 5.03776 5.77734 5.34766C6.08724 5.65755 6.46354 5.8125 6.90625 5.8125C7.34896 5.8125 7.72526 5.65755 8.03516 5.34766C8.34505 5.03776 8.5 4.66146 8.5 4.21875C8.5 3.77604 8.34505 3.39974 8.03516 3.08984C7.72526 2.77995 7.34896 2.625 6.90625 2.625ZM10.0938 12.1875C9.65104 12.1875 9.27474 12.3424 8.96484 12.6523C8.65495 12.9622 8.5 13.3385 8.5 13.7812C8.5 14.224 8.65495 14.6003 8.96484 14.9102C9.27474 15.2201 9.65104 15.375 10.0938 15.375C10.5365 15.375 10.9128 15.2201 11.2227 14.9102C11.5326 14.6003 11.6875 14.224 11.6875 13.7812C11.6875 13.3385 11.5326 12.9622 11.2227 12.6523C10.9128 12.3424 10.5365 12.1875 10.0938 12.1875ZM13.2812 9C12.8385 9 12.4622 9.15495 12.1523 9.46484C11.8424 9.77474 11.6875 10.151 11.6875 10.5938C11.6875 11.0365 11.8424 11.4128 12.1523 11.7227C12.4622 12.0326 12.8385 12.1875 13.2812 12.1875C13.724 12.1875 14.1003 12.0326 14.4102 11.7227C14.7201 11.4128 14.875 11.0365 14.875 10.5938C14.875 10.151 14.7201 9.77474 14.4102 9.46484C14.1003 9.15495 13.724 9 13.2812 9Z" fill="#929DAB"/>
</svg>
