<svg width="18" height="18" viewBox="0 0 18 18" fill="none" xmlns="http://www.w3.org/2000/svg">
<path d="M16.8481 8.90366C16.6827 6.93613 15.7843 5.10249 14.3309 3.766C12.8776 2.42951 10.9752 1.68769 9.00073 1.6875H8.99976C7.0253 1.68769 5.12293 2.42951 3.66954 3.766C2.21616 5.10249 1.3178 6.93613 1.15244 8.90366C1.13932 9.05894 1.15856 9.21525 1.20894 9.36271C1.25932 9.51017 1.33974 9.64557 1.44513 9.76036C1.55052 9.87515 1.67857 9.96682 1.8212 10.0296C1.96383 10.0923 2.11793 10.1248 2.27376 10.125H8.43775V14.0625C8.43775 14.6592 8.6748 15.2315 9.09676 15.6535C9.51871 16.0754 10.091 16.3125 10.6877 16.3125C11.2845 16.3125 11.8568 16.0754 12.2787 15.6535C12.7007 15.2315 12.9377 14.6592 12.9377 14.0625C12.9377 13.9133 12.8785 13.7702 12.773 13.6648C12.6675 13.5593 12.5244 13.5 12.3752 13.5C12.2261 13.5 12.083 13.5593 11.9775 13.6648C11.872 13.7702 11.8127 13.9133 11.8127 14.0625C11.8127 14.3609 11.6942 14.647 11.4832 14.858C11.2723 15.069 10.9861 15.1875 10.6877 15.1875C10.3894 15.1875 10.1032 15.069 9.89225 14.858C9.68127 14.647 9.56275 14.3609 9.56275 14.0625V10.125H15.7267C15.8826 10.1248 16.0367 10.0923 16.1793 10.0296C16.3219 9.96682 16.45 9.87515 16.5554 9.76036C16.6608 9.64557 16.7412 9.51017 16.7916 9.36271C16.8419 9.21525 16.8612 9.05894 16.8481 8.90366ZM2.27359 8.99664C2.39522 7.55049 2.97979 6.18208 3.94057 5.09442C4.90136 4.00675 6.18717 3.25778 7.60725 2.95862C6.78348 4.08214 5.75499 6.05601 5.63688 9H2.27376L2.27359 8.99664ZM12.3636 9C12.2455 6.05601 11.217 4.08214 10.3932 2.95862C11.8139 3.25783 13.1001 4.00727 14.0609 5.09563C15.0218 6.18399 15.606 7.55323 15.7267 9H12.3636Z" fill="#929DAB"/>
</svg>
