<svg width="18" height="18" viewBox="0 0 18 18" fill="none" xmlns="http://www.w3.org/2000/svg">
<path fill-rule="evenodd" clip-rule="evenodd" d="M9.85499 1.45992C9.47259 0.806653 8.52835 0.806653 8.14595 1.45992C7.8514 1.96312 7.18799 2.10413 6.71424 1.76424C6.09919 1.32299 5.23659 1.70704 5.15296 2.45937C5.08854 3.03886 4.53984 3.43752 3.9688 3.31971C3.22746 3.16676 2.59563 3.86847 2.82523 4.58977C3.00209 5.14537 2.66297 5.73273 2.09339 5.85737C1.35392 6.01918 1.06214 6.9172 1.56526 7.48276C1.95281 7.91839 1.88192 8.5929 1.41227 8.93843C0.802548 9.38702 0.901248 10.3261 1.59091 10.6381C2.12214 10.8784 2.33172 11.5235 2.04322 12.0302C1.66867 12.688 2.14079 13.5057 2.89774 13.5102C3.48079 13.5137 3.93461 14.0177 3.87714 14.598C3.80252 15.3512 4.56643 15.9063 5.25978 15.6025C5.79384 15.3686 6.41344 15.6444 6.59693 16.1979C6.83515 16.9164 7.75876 17.1127 8.26862 16.5532C8.66135 16.1222 9.33958 16.1222 9.73232 16.5532C10.2422 17.1127 11.1658 16.9164 11.404 16.1979C11.5875 15.6444 12.2071 15.3686 12.7412 15.6025C13.4345 15.9063 14.1984 15.3512 14.1238 14.598C14.0663 14.0177 14.5201 13.5137 15.1032 13.5102C15.8601 13.5057 16.3323 12.688 15.9577 12.0302C15.6692 11.5235 15.8788 10.8784 16.41 10.6381C17.0997 10.3261 17.1984 9.38702 16.5887 8.93843C16.119 8.5929 16.0481 7.91839 16.4357 7.48276C16.9388 6.9172 16.647 6.01918 15.9075 5.85737C15.338 5.73273 14.9988 5.14537 15.1757 4.58977C15.4053 3.86847 14.7735 3.16676 14.0321 3.31971C13.4611 3.43752 12.9124 3.03886 12.848 2.45937C12.7643 1.70704 11.9017 1.32299 11.2867 1.76424C10.8129 2.10413 10.1495 1.96312 9.85499 1.45992ZM5.8365 10.9998L4.74037 8.37118L4.54855 7.85118V10.9998H4.00049V6.99976H4.76778L5.8639 9.62833L6.05572 10.154V6.99976H6.60379V10.9998H5.8365ZM7.33436 10.9998V6.99976H9.38959V7.60547H7.88242V8.63975H9.11556V9.24547H7.88242V10.394H9.38959V10.9998H7.33436ZM11.8722 7.82261L12.5162 10.9998H13.2012L14.0005 6.99976H13.4433L12.8541 10.1712L12.2193 6.99976H11.5342L10.9496 10.1655L10.3285 6.99976H9.753L10.5979 10.9998H11.283L11.8722 7.82261Z" fill="#929DAB"/>
</svg>
