<svg width="18" height="18" viewBox="0 0 18 18" fill="none" xmlns="http://www.w3.org/2000/svg">
<path d="M16.7063 4.39968C16.5981 4.274 16.4658 4.17346 16.3178 4.10459C16.1698 4.03573 16.0096 4.00009 15.8475 4H12.4087C12.2726 3.16118 11.8556 2.39965 11.2317 1.85048C10.6077 1.30131 9.81706 1 9.00003 1C8.183 1 7.39238 1.30131 6.76841 1.85048C6.14443 2.39965 5.72744 3.16118 5.5914 4H2.15253C1.99044 4 1.83018 4.0356 1.6822 4.10447C1.53422 4.17334 1.40186 4.27394 1.29376 4.39969C1.18566 4.52544 1.10425 4.67351 1.05484 4.83425C1.00544 4.99498 0.989151 5.16476 1.00704 5.33249L2.03146 14.9325C2.06254 15.2261 2.19664 15.4975 2.40804 15.6945C2.61943 15.8915 2.89324 16.0003 3.17695 16H14.8231C15.1068 16.0003 15.3806 15.8915 15.592 15.6945C15.8034 15.4975 15.9375 15.2261 15.9686 14.9325L16.993 5.33249C17.0108 5.16476 16.9945 4.99501 16.9451 4.83428C16.8957 4.67356 16.8143 4.52548 16.7063 4.39968ZM6.69443 7C6.69443 7.15913 6.63372 7.31174 6.52565 7.42426C6.41758 7.53679 6.27101 7.6 6.11817 7.6C5.96534 7.6 5.81877 7.53679 5.7107 7.42426C5.60263 7.31174 5.54191 7.15913 5.54191 7V5.8C5.54191 5.64087 5.60263 5.48826 5.7107 5.37574C5.81877 5.26321 5.96534 5.2 6.11817 5.2C6.27101 5.2 6.41758 5.26321 6.52565 5.37574C6.63372 5.48826 6.69443 5.64087 6.69443 5.8V7ZM6.76794 4C6.89576 3.48481 7.18436 3.02844 7.58839 2.70262C7.99242 2.3768 8.48898 2.2 9.00003 2.2C9.51107 2.2 10.0076 2.3768 10.4117 2.70262C10.8157 3.02844 11.1043 3.48481 11.2321 4H6.76794ZM12.457 7C12.457 7.15913 12.3963 7.31174 12.2882 7.42426C12.1802 7.53679 12.0336 7.6 11.8808 7.6C11.7279 7.6 11.5814 7.53679 11.4733 7.42426C11.3652 7.31174 11.3045 7.15913 11.3045 7V5.8C11.3045 5.64087 11.3652 5.48826 11.4733 5.37574C11.5814 5.26321 11.7279 5.2 11.8808 5.2C12.0336 5.2 12.1802 5.26321 12.2882 5.37574C12.3963 5.48826 12.457 5.64087 12.457 5.8V7Z" fill="#929DAB"/>
</svg>
