<svg width="18" height="18" viewBox="0 0 18 18" fill="none" xmlns="http://www.w3.org/2000/svg">
<path fill-rule="evenodd" clip-rule="evenodd" d="M3.99723 6.13718L4.70285 5.63015C4.84798 5.88321 5.02283 6.11757 5.22361 6.32814C5.36679 6.47632 5.51897 6.61531 5.67927 6.7443L5.86154 6.55861L5.5621 6.19644C5.29218 5.8716 5.15938 5.59284 5.16372 5.36018C5.18661 5.09359 5.3113 4.84652 5.51133 4.67141C5.82378 4.35622 6.10629 4.20784 6.35886 4.22628C6.61143 4.24472 6.89784 4.41768 7.21811 4.74516C7.51659 5.04093 7.78084 5.37009 8.00575 5.72629L7.32877 6.22542C7.18065 6.01114 7.01656 5.80862 6.83796 5.61962C6.72338 5.50054 6.60118 5.38924 6.47212 5.28643L6.29246 5.46685L6.53071 5.75922C6.81886 6.1104 6.96337 6.41111 6.96424 6.66133C6.96034 6.79297 6.92992 6.92242 6.87485 7.04175C6.81979 7.16109 6.74122 7.2678 6.64397 7.35536C6.51637 7.49191 6.36499 7.60352 6.19742 7.6846C6.07561 7.74458 5.94232 7.77694 5.80686 7.77942C5.6759 7.771 5.54897 7.73031 5.43712 7.6609C5.32024 7.59652 5.20991 7.52065 5.10774 7.43438C5.02312 7.36063 4.91376 7.25791 4.78227 7.12358C4.4852 6.82583 4.22308 6.4944 4.00114 6.13586L3.99723 6.13718ZM6.78718 9.03448L6.01516 8.25352L8.89364 6.54149L10.025 7.6846L8.33253 10.5964L7.5605 9.81543L7.83781 9.36503L7.23373 8.75397L6.78718 9.04106V9.03448ZM8.71919 7.78469L7.94586 8.30357L8.28305 8.64466L8.80381 7.86897L8.7257 7.79127L8.71919 7.78469ZM10.0211 12.2992L8.55255 10.8255L10.8387 8.51296L11.5703 9.25309L9.86876 10.977L10.603 11.7145L10.0185 12.3058L10.0211 12.2992ZM12.6314 13.1934L11.8997 12.4533L11.6159 12.7417L12.5116 13.6478L11.927 14.2404L10.2984 12.5929L12.5858 10.2803L14.1949 11.9081L13.518 12.4085L12.7368 11.6118L12.4257 11.9239L13.1573 12.6627L12.6275 13.2L12.6314 13.1934ZM3.57281 2.62487C3.68419 2.62137 3.79511 2.64068 3.89892 2.68164C4.00273 2.7226 4.09728 2.78437 4.17689 2.86323C4.25902 2.94142 4.32491 3.03538 4.37074 3.13962C4.41656 3.24386 4.44139 3.35629 4.44378 3.47035C4.44622 3.69848 4.3595 3.91836 4.20248 4.08213C4.04546 4.2459 3.83085 4.34031 3.60536 4.34481C3.49354 4.35113 3.38165 4.33365 3.27693 4.2935C3.1722 4.25334 3.07697 4.19141 2.99738 4.11171C2.91517 4.0348 2.84959 3.9415 2.80478 3.83769C2.75997 3.73389 2.73689 3.62182 2.737 3.50854C2.73295 3.39377 2.75223 3.27938 2.79366 3.17246C2.83509 3.06554 2.89778 2.96836 2.97785 2.88694C3.05402 2.80432 3.1461 2.73833 3.24841 2.69303C3.35073 2.64773 3.46113 2.62409 3.57281 2.62355V2.62487ZM7.31054 1.1591C10.4038 4.28028 13.4976 7.40321 16.5917 10.5279C16.7242 10.6649 16.8284 10.8271 16.8985 11.0051C16.9685 11.1831 17.003 11.3733 16.9998 11.5649C16.9967 11.7565 16.956 11.9455 16.8801 12.121C16.8043 12.2966 16.6947 12.4552 16.5579 12.5876L12.5272 16.5582L12.496 16.5885C12.3618 16.7238 12.2017 16.8301 12.0255 16.9007C11.8494 16.9714 11.6608 17.0049 11.4714 16.9994C11.114 16.9899 10.7721 16.8495 10.5093 16.6043L10.4637 16.5582L1.33877 7.19601C1.24394 7.09876 1.18865 6.96905 1.18384 6.83253L1.00028 1.74119C0.995708 1.59666 1.04795 1.45619 1.14555 1.35055C1.24316 1.2449 1.37818 1.18269 1.52103 1.17753L6.90045 1.00106C6.976 0.996243 7.05169 1.00785 7.12243 1.03511C7.19317 1.06237 7.25731 1.10465 7.31054 1.1591Z" fill="#929DAB"/>
</svg>
