<svg width="18" height="18" viewBox="0 0 18 18" fill="none" xmlns="http://www.w3.org/2000/svg">
<path d="M15.4391 2.87225C15.3457 2.82549 15.2411 2.80569 15.137 2.81506C15.033 2.82444 14.9336 2.86262 14.85 2.92532C12.8602 4.41775 11.1739 3.69505 9.22158 2.85831C7.23567 2.00721 4.98491 1.04289 2.47501 2.92532C2.47168 2.92781 2.4688 2.93065 2.46557 2.93319C2.45778 2.9393 2.45026 2.94561 2.44281 2.95212C2.43584 2.95821 2.42894 2.96436 2.42235 2.97073C2.4162 2.97665 2.4103 2.98278 2.40443 2.98898C2.39739 2.99639 2.39046 3.00384 2.3839 3.01157C2.37892 3.01744 2.37422 3.0235 2.36948 3.02956C2.36295 3.0379 2.3565 3.04628 2.35053 3.05493C2.34606 3.06131 2.34198 3.06791 2.33779 3.07448C2.33236 3.08308 2.32694 3.09166 2.322 3.10052C2.31777 3.10804 2.31393 3.11578 2.31005 3.12352C2.30596 3.13173 2.30181 3.1399 2.29814 3.14826C2.29422 3.15712 2.29075 3.1662 2.28729 3.17528C2.28437 3.18295 2.28142 3.19061 2.27884 3.19839C2.27565 3.20802 2.27293 3.21784 2.27026 3.22771C2.26813 3.2355 2.266 3.24326 2.26422 3.25114C2.26209 3.26065 2.26034 3.27031 2.25869 3.28001C2.25718 3.28882 2.25573 3.29761 2.25464 3.30648C2.25357 3.31522 2.25282 3.32401 2.25213 3.33287C2.25137 3.34311 2.25083 3.35336 2.25058 3.36365C2.25051 3.36759 2.25 3.3714 2.25 3.37535V15.1879C2.25 15.337 2.30926 15.4801 2.41475 15.5856C2.52024 15.6911 2.66332 15.7504 2.8125 15.7504C2.96168 15.7504 3.10476 15.6911 3.21025 15.5856C3.31574 15.4801 3.375 15.337 3.375 15.1879V12.1035C5.26805 10.8265 6.9002 11.5249 8.77842 12.3299C9.92196 12.82 11.1533 13.3477 12.4714 13.3476C13.4423 13.3476 14.4603 13.0613 15.525 12.2629C15.5948 12.2105 15.6516 12.1425 15.6906 12.0644C15.7297 11.9863 15.75 11.9002 15.75 11.8129V3.37535C15.75 3.27089 15.7209 3.1685 15.666 3.07964C15.6111 2.99078 15.5325 2.91897 15.4391 2.87225Z" fill="#929DAB"/>
</svg>
