<svg width="18" height="18" viewBox="0 0 18 18" fill="none" xmlns="http://www.w3.org/2000/svg">
<path d="M15.6611 2.13633C15.6516 2.1286 15.1767 1.77295 14.8195 2.24233C13.6764 3.74975 9.87949 8.70943 8.04039 10.4652C6.43422 11.9989 5.02258 11.1249 4.38905 10.5591V10.5606C4.38905 10.5606 4.06425 10.214 3.32103 10.4521C3.31927 10.4526 3.31927 10.4526 3.31751 10.4526C3.01606 10.5544 2.60617 10.6844 2.05321 10.8497C1.26958 11.0826 1.0261 11.6884 1 12.2679C1.01481 12.4601 1.10718 13.3328 1.58183 13.9138C2.44653 14.8232 4.13578 15.7651 5.92744 15.9618C7.99672 16.1875 8.50274 15.3052 8.50274 15.3052C8.50274 15.3052 9.76503 13.551 10.9475 11.7673C10.9483 11.7655 10.95 11.7648 10.951 11.763C11.9719 10.2524 13.1797 9.4937 13.2055 9.4772C13.2753 9.44547 13.3423 9.41582 13.4068 9.39131C13.5376 9.35134 14.2449 9.18061 14.3034 10.1691L14.6039 15.4489L14.6056 15.517C14.6056 15.517 14.6056 15.518 14.6056 15.519L14.6084 15.6152C14.6204 15.756 14.6824 15.9995 14.9723 16C15.2434 15.9946 15.2791 15.6836 15.2816 15.5572V15.503C15.3915 14.1251 15.8724 9.00163 16.3175 8.06751C17.8288 4.51211 16.4749 2.79346 15.6611 2.13633Z" fill="#929DAB"/>
</svg>
