<svg width="18" height="18" viewBox="0 0 18 18" fill="none" xmlns="http://www.w3.org/2000/svg">
<path d="M3.375 5.625C4.17234 5.62602 4.94366 5.90884 5.55266 6.4235C6.16167 6.93815 6.56916 7.6515 6.70314 8.4375H11.2969C11.3704 8.00032 11.5294 7.58193 11.7649 7.20628C12.0003 6.83063 12.3075 6.5051 12.6688 6.2483C13.0302 5.9915 13.4387 5.80849 13.8709 5.70973C14.303 5.61097 14.7505 5.59841 15.1875 5.67276V5.0625C15.1867 4.31684 14.8901 3.60196 14.3628 3.07469C13.8355 2.54743 13.1207 2.25084 12.375 2.25H5.625C4.87934 2.25084 4.16446 2.54743 3.63719 3.07469C3.10993 3.60196 2.81334 4.31684 2.8125 5.0625V5.67276C2.99834 5.6412 3.1865 5.62522 3.375 5.625Z" fill="#929DAB"/>
<path d="M16.8702 8.86011C16.8686 8.83467 16.8668 8.80929 16.8644 8.78406C16.8633 8.77246 16.862 8.76092 16.8607 8.74938C16.8579 8.72442 16.8548 8.69959 16.8512 8.67488C16.8497 8.66465 16.8482 8.65442 16.8466 8.64426C16.8421 8.61614 16.8371 8.58822 16.8316 8.56049C16.8304 8.55424 16.8293 8.54799 16.828 8.54178C16.7145 7.99658 16.403 7.51282 15.9535 7.18404C15.5041 6.85526 14.9487 6.70482 14.3947 6.76182C13.8408 6.81883 13.3277 7.07922 12.9546 7.49264C12.5815 7.90606 12.375 8.44314 12.375 9.00001V11.8125C12.375 11.9617 12.3157 12.1048 12.2102 12.2103C12.1048 12.3157 11.9617 12.375 11.8125 12.375C11.6633 12.375 11.5202 12.3157 11.4148 12.2103C11.3093 12.1048 11.25 11.9617 11.25 11.8125V9.56251H6.75V11.8125C6.75 11.9617 6.69074 12.1048 6.58525 12.2103C6.47976 12.3157 6.33668 12.375 6.1875 12.375C6.03832 12.375 5.89524 12.3157 5.78975 12.2103C5.68426 12.1048 5.625 11.9617 5.625 11.8125V9.00001C5.62498 8.44315 5.41846 7.90607 5.04539 7.49266C4.67232 7.07924 4.1592 6.81885 3.60526 6.76185C3.05132 6.70484 2.49593 6.85527 2.04648 7.18405C1.59703 7.51283 1.28547 7.99659 1.17204 8.54178C1.17075 8.54799 1.16964 8.55424 1.16841 8.56049C1.16289 8.58823 1.15789 8.61615 1.1534 8.64426C1.15178 8.65442 1.15028 8.66465 1.1488 8.67488C1.14521 8.69957 1.14204 8.7244 1.1393 8.74938C1.13802 8.76092 1.13669 8.77246 1.1356 8.78406C1.13318 8.80929 1.13136 8.83467 1.12979 8.86011C1.12914 8.87075 1.12825 8.88132 1.12775 8.892C1.12604 8.92781 1.125 8.96379 1.125 9.00001C1.12504 9.49888 1.2908 9.9836 1.59625 10.378C1.90169 10.7725 2.32951 11.0542 2.8125 11.1791V14.0625C2.81284 14.3608 2.93148 14.6467 3.14238 14.8576C3.35329 15.0685 3.63924 15.1872 3.9375 15.1875H14.0625C14.3608 15.1872 14.6467 15.0685 14.8576 14.8576C15.0685 14.6467 15.1872 14.3608 15.1875 14.0625V11.1791C15.6705 11.0542 16.0983 10.7725 16.4038 10.378C16.7092 9.9836 16.875 9.49888 16.875 9.00001C16.875 8.96379 16.874 8.92781 16.8723 8.892C16.8718 8.88132 16.8709 8.87075 16.8702 8.86011Z" fill="#929DAB"/>
</svg>
