<svg width="12" height="12" viewBox="0 0 12 12" fill="none" xmlns="http://www.w3.org/2000/svg">
<path d="M11.0422 8.99246C10.6413 9.42975 10.0831 9.46407 9.59294 8.99246L5.99923 5.31862L2.40553 8.99246C1.9154 9.46406 1.35629 9.42975 0.958117 8.99246C0.557182 8.55615 0.58293 7.81883 0.958117 7.40899C1.33147 6.99915 5.27553 2.9949 5.27553 2.9949C5.36945 2.89111 5.48202 2.80856 5.60652 2.75219C5.73101 2.69581 5.86489 2.66675 6.00015 2.66675C6.13542 2.66675 6.26929 2.69581 6.39379 2.75219C6.51829 2.80856 6.63086 2.89111 6.72478 2.9949C6.72478 2.9949 10.667 6.99915 11.0422 7.40899C11.4183 7.81883 11.4431 8.55615 11.0422 8.99246Z" fill="#091521"/>
</svg>
