<svg width="18" height="18" viewBox="0 0 18 18" fill="none" xmlns="http://www.w3.org/2000/svg">
<path d="M18 16.1998V3.24014C18 2.84232 17.6777 2.52002 17.2802 2.52002H13.68C13.2824 2.52002 12.9602 2.84232 12.9602 3.24014V16.1998C12.9602 16.5977 13.2824 16.9199 13.68 16.9199H17.28C17.6777 16.9199 18 16.5977 18 16.1998Z" fill="#091521"/>
<path d="M6.84023 16.9199H10.8002C11.1979 16.9199 11.5202 16.5977 11.5202 16.1998V1.80005C11.5202 1.40223 11.1979 1.08008 10.8002 1.08008H6.84023C6.44242 1.08008 6.12012 1.40223 6.12012 1.80005V16.1998C6.12012 16.5977 6.44227 16.9199 6.84023 16.9199Z" fill="#091521"/>
<path d="M0.71997 6.83997C0.322154 6.83997 0 7.16212 0 7.55994V16.1997C0 16.5977 0.322154 16.9198 0.71997 16.9198H4.31997C4.71779 16.9198 5.03994 16.5977 5.03994 16.1997V7.55994C5.03994 7.16212 4.71779 6.83997 4.31997 6.83997H0.71997Z" fill="#091521"/>
</svg>
