<svg width="27" height="20" viewBox="0 0 27 20" fill="none" xmlns="http://www.w3.org/2000/svg">
<path d="M3.24008 1.11108C2.66721 1.11108 2.11781 1.33058 1.71273 1.72128C1.30765 2.11198 1.08008 2.64188 1.08008 3.19442V14.6528H3.24008C3.24008 15.4816 3.58143 16.2764 4.18905 16.8625C4.79667 17.4485 5.62078 17.7778 6.48008 17.7778C7.33938 17.7778 8.16349 17.4485 8.7711 16.8625C9.37872 16.2764 9.72008 15.4816 9.72008 14.6528H16.2001C16.2001 15.4816 16.5414 16.2764 17.1491 16.8625C17.7567 17.4485 18.5808 17.7778 19.4401 17.7778C20.2994 17.7778 21.1235 17.4485 21.7311 16.8625C22.3387 16.2764 22.6801 15.4816 22.6801 14.6528H24.8401V9.44442L21.6001 5.27775H18.3601V1.11108H3.24008ZM10.8001 3.19442L15.1201 7.36108L10.8001 11.5278V8.40275H4.32008V6.31942H10.8001V3.19442ZM18.3601 6.84025H21.0601L23.1877 9.44442H18.3601V6.84025ZM6.48008 13.0903C6.90973 13.0903 7.32178 13.2549 7.62559 13.5479C7.9294 13.8409 8.10008 14.2384 8.10008 14.6528C8.10008 15.0672 7.9294 15.4646 7.62559 15.7576C7.32178 16.0506 6.90973 16.2153 6.48008 16.2153C6.05043 16.2153 5.63837 16.0506 5.33457 15.7576C5.03076 15.4646 4.86008 15.0672 4.86008 14.6528C4.86008 14.2384 5.03076 13.8409 5.33457 13.5479C5.63837 13.2549 6.05043 13.0903 6.48008 13.0903ZM19.4401 13.0903C19.8697 13.0903 20.2818 13.2549 20.5856 13.5479C20.8894 13.8409 21.0601 14.2384 21.0601 14.6528C21.0601 15.0672 20.8894 15.4646 20.5856 15.7576C20.2818 16.0506 19.8697 16.2153 19.4401 16.2153C19.0104 16.2153 18.5984 16.0506 18.2946 15.7576C17.9908 15.4646 17.8201 15.0672 17.8201 14.6528C17.8201 14.2384 17.9908 13.8409 18.2946 13.5479C18.5984 13.2549 19.0104 13.0903 19.4401 13.0903Z" fill="#004ED6"/>
</svg>
