<svg width="8" height="8" viewBox="0 0 8 8" fill="none" xmlns="http://www.w3.org/2000/svg">
<path d="M0.638863 2.00503C0.906153 1.7135 1.27827 1.69062 1.60503 2.00503L4.00083 4.45425L6.39664 2.00503C6.72339 1.69062 7.09613 1.7135 7.36158 2.00503C7.62887 2.2959 7.61171 2.78745 7.36158 3.06067C7.11268 3.3339 4.48331 6.0034 4.48331 6.0034C4.42069 6.07259 4.34565 6.12762 4.26265 6.16521C4.17965 6.2028 4.0904 6.22217 4.00022 6.22217C3.91005 6.22217 3.82079 6.2028 3.7378 6.16521C3.6548 6.12762 3.57975 6.07259 3.51714 6.0034C3.51714 6.0034 0.888987 3.3339 0.638862 3.06067C0.388125 2.78745 0.371572 2.2959 0.638863 2.00503Z" fill="white"/>
</svg>
