<svg width="8" height="8" viewBox="0 0 8 8" fill="none" xmlns="http://www.w3.org/2000/svg">
<path d="M0.637886 2.00509C0.905176 1.71356 1.2773 1.69068 1.60405 2.00509L3.99986 4.45431L6.39566 2.00509C6.72242 1.69068 7.09515 1.71356 7.3606 2.00509C7.62789 2.29596 7.61073 2.78751 7.3606 3.06073C7.11171 3.33396 4.48233 6.00346 4.48233 6.00346C4.41972 6.07265 4.34467 6.12768 4.26167 6.16527C4.17867 6.20286 4.08942 6.22223 3.99924 6.22223C3.90907 6.22223 3.81982 6.20286 3.73682 6.16527C3.65382 6.12768 3.57877 6.07265 3.51616 6.00346C3.51616 6.00346 0.888011 3.33396 0.637886 3.06073C0.387148 2.78751 0.370596 2.29596 0.637886 2.00509Z" fill="#091521"/>
</svg>
