<svg width="36" height="36" viewBox="0 0 36 36" fill="none" xmlns="http://www.w3.org/2000/svg">
<rect width="36" height="36" rx="18" fill="#091521"/>
<path fill-rule="evenodd" clip-rule="evenodd" d="M24.2744 10H11.9256C10.8621 10 10 10.8599 10 11.9212V24.2788C10 25.3397 10.8621 26.2 11.9256 26.2H24.2744C25.3379 26.2 26.2 25.3397 26.2 24.2788V11.9212C26.2 10.8599 25.3379 10 24.2744 10ZM21.644 12.5311C21.644 12.2518 21.8707 12.0251 22.1499 12.0251H23.6686C23.9483 12.0251 24.175 12.2518 24.175 12.5311V14.0502C24.175 14.3295 23.9483 14.5561 23.6686 14.5561H22.1499C21.8707 14.5561 21.644 14.3295 21.644 14.0502V12.5311ZM18.1188 15.0107C19.8394 15.0107 21.2344 16.4026 21.2344 18.1188C21.2344 19.8354 19.8394 21.2269 18.1188 21.2269C16.3986 21.2269 15.0037 19.8354 15.0037 18.1188C15.0037 16.4026 16.3986 15.0107 18.1188 15.0107ZM24.6813 24.1751C24.6813 24.4544 24.4546 24.6815 24.1749 24.6815H12.0251C11.7454 24.6815 11.5187 24.4544 11.5187 24.1751V16.5813H13.5437C13.2799 16.9609 13.1907 17.6692 13.1907 18.119C13.1907 20.8298 15.4018 23.0356 18.1188 23.0356C20.8362 23.0356 23.0473 20.8298 23.0473 18.119C23.0473 17.6692 22.9832 16.9719 22.6563 16.5813H24.6813V24.1751Z" fill="white"/>
</svg>
