<svg width="34" height="21" viewBox="0 0 34 21" fill="none" xmlns="http://www.w3.org/2000/svg">
<path fill-rule="evenodd" clip-rule="evenodd" d="M21.647 18.6849H12.4954V2.23779H21.647V18.6849Z" fill="white"/>
<path fill-rule="evenodd" clip-rule="evenodd" d="M13.0817 10.4599C13.0817 7.12355 14.6438 4.15161 17.0764 2.23637C15.2975 0.83585 13.0524 -7.24792e-05 10.6125 -7.24792e-05C4.83617 -7.24792e-05 0.153809 4.68295 0.153809 10.4599C0.153809 16.2369 4.83617 20.9199 10.6125 20.9199C13.0524 20.9199 15.2975 20.084 17.0764 18.6835C14.6438 16.7682 13.0817 13.7963 13.0817 10.4599Z" fill="white"/>
<path fill-rule="evenodd" clip-rule="evenodd" d="M33.9897 10.4599C33.9897 16.2369 29.3073 20.9199 23.531 20.9199C21.0911 20.9199 18.846 20.084 17.0664 18.6835C19.4997 16.7682 21.0618 13.7963 21.0618 10.4599C21.0618 7.12355 19.4997 4.15161 17.0664 2.23637C18.846 0.83585 21.0911 -7.24792e-05 23.531 -7.24792e-05C29.3073 -7.24792e-05 33.9897 4.68295 33.9897 10.4599Z" fill="#929DAB"/>
</svg>
