<svg width="20" height="20" viewBox="0 0 20 20" fill="none" xmlns="http://www.w3.org/2000/svg">
<g clip-path="url(#clip0_1343:18372)">
<path d="M13.1271 3.02656L14.5642 0H5.43604L6.87275 3.02656H13.1271Z" fill="#004ED6"/>
<path d="M6.99658 6.01875L4.13877 0L1.81104 2.00117L4.49932 7.65898C5.21416 6.96445 6.06064 6.40391 6.99658 6.01875Z" fill="#004ED6"/>
<path d="M15.4745 7.67109L18.1894 2.00117L15.8616 0L12.9976 6.03242C13.9261 6.41914 14.7651 6.97891 15.4745 7.67109Z" fill="#004ED6"/>
<path d="M10.5304 12.7793L9.98076 11.6868L9.43115 12.7793L8.54443 12.9028L9.21396 13.5551L9.05303 14.6016L9.98076 14.0793L10.9089 14.6016L10.7476 13.5551L11.4171 12.9028L10.5304 12.7793Z" fill="#004ED6"/>
<path d="M9.98067 6.60315C6.28731 6.60315 3.28223 9.60823 3.28223 13.3016C3.28223 16.9949 6.28731 20 9.98067 20C13.674 20 16.6791 16.9949 16.6791 13.3016C16.6791 9.60823 13.674 6.60315 9.98067 6.60315ZM12.4338 16.8043L9.98067 15.4242L7.52754 16.8043L7.96387 13.9731L6.01231 12.0723L8.66035 11.7035L9.98067 9.07971L11.301 11.7035L13.949 12.0723L11.9975 13.9735L12.4338 16.8043Z" fill="#004ED6"/>
</g>
<defs>
<clipPath id="clip0_1343:18372">
<rect width="20" height="20" fill="white"/>
</clipPath>
</defs>
</svg>
