<svg width="18" height="18" viewBox="0 0 18 18" fill="none" xmlns="http://www.w3.org/2000/svg">
<path fill-rule="evenodd" clip-rule="evenodd" d="M0 2.33333C0 1.97971 0.135459 1.64057 0.376577 1.39052C0.617695 1.14048 0.944722 1 1.28571 1H16.7143C17.0553 1 17.3823 1.14048 17.6234 1.39052C17.8645 1.64057 18 1.97971 18 2.33333C18 2.68696 17.8645 3.02609 17.6234 3.27614C17.3823 3.52619 17.0553 3.66667 16.7143 3.66667H1.28571C0.944722 3.66667 0.617695 3.52619 0.376577 3.27614C0.135459 3.02609 0 2.68696 0 2.33333ZM0 9C0 8.64638 0.135459 8.30724 0.376577 8.05719C0.617695 7.80714 0.944722 7.66667 1.28571 7.66667H9C9.34099 7.66667 9.66802 7.80714 9.90914 8.05719C10.1503 8.30724 10.2857 8.64638 10.2857 9C10.2857 9.35362 10.1503 9.69276 9.90914 9.94281C9.66802 10.1929 9.34099 10.3333 9 10.3333H1.28571C0.944722 10.3333 0.617695 10.1929 0.376577 9.94281C0.135459 9.69276 0 9.35362 0 9ZM0 15.6667C0 15.313 0.135459 14.9739 0.376577 14.7239C0.617695 14.4738 0.944722 14.3333 1.28571 14.3333H16.7143C17.0553 14.3333 17.3823 14.4738 17.6234 14.7239C17.8645 14.9739 18 15.313 18 15.6667C18 16.0203 17.8645 16.3594 17.6234 16.6095C17.3823 16.8595 17.0553 17 16.7143 17H1.28571C0.944722 17 0.617695 16.8595 0.376577 16.6095C0.135459 16.3594 0 16.0203 0 15.6667Z" fill="white"/>
</svg>
