<svg width="61" height="17" viewBox="0 0 61 17" fill="none" xmlns="http://www.w3.org/2000/svg">
<path fill-rule="evenodd" clip-rule="evenodd" d="M16.8465 0.00742439V3.2337e-07H22.1915V17H16.8465V6.91136H16.4011L13.2832 17H9.57138L6.45348 6.90393H6.23077H6.00806V17H0.663086V3.2337e-07H6.00806C6.00806 3.2337e-07 8.35392 -0.00742275 8.9775 2.22707C9.55654 4.3131 11.2046 10.0961 11.2046 10.0961H11.65C11.6945 9.94018 13.3054 4.28341 13.8771 2.2345C14.4994 0.00452054 16.8296 0.00740353 16.8464 0.00742432L16.8465 0.00742439ZM34.0692 1.78166C34.8041 0.141049 36.3705 3.2337e-07 36.3705 3.2337e-07H41.4186V17H36.0736V6.90393H35.6282L31.9164 15.2183C31.1814 16.8515 29.5408 17 29.5408 17H24.4928V3.2337e-07H29.8378V10.0961H30.2832L34.0692 1.78166ZM43.7941 7.72046V16.9999H49.139V11.5807H54.9294C57.4535 11.5807 59.5914 9.9698 60.3858 7.72046H43.7941ZM43.0443 3.2337e-07H54.9295C58.129 3.2337e-07 60.7199 2.59083 60.7199 5.79039C60.7199 6.19869 60.6827 6.59214 60.6011 6.97817H51.4404C50.6683 6.97817 49.9185 6.87424 49.2059 6.68122C46.0657 5.83494 43.6382 3.23668 43.0443 3.2337e-07Z" fill="white"/>
</svg>
