<svg width="18" height="18" viewBox="0 0 18 18" fill="none" xmlns="http://www.w3.org/2000/svg">
<rect width="18" height="18" rx="4" fill="#707070"/>
<path d="M10.0915 9L13.1466 5.94487C13.2916 5.80013 13.3732 5.60372 13.3734 5.39884C13.3735 5.19397 13.2923 4.99741 13.1476 4.85242C13.0028 4.70742 12.8064 4.62586 12.6016 4.62568C12.3967 4.6255 12.2001 4.70671 12.0551 4.85145L9 7.90658L5.94487 4.85145C5.79987 4.70646 5.60322 4.625 5.39816 4.625C5.19311 4.625 4.99645 4.70646 4.85145 4.85145C4.70646 4.99645 4.625 5.19311 4.625 5.39816C4.625 5.60322 4.70646 5.79987 4.85145 5.94487L7.90658 9L4.85145 12.0551C4.70646 12.2001 4.625 12.3968 4.625 12.6018C4.625 12.8069 4.70646 13.0036 4.85145 13.1485C4.99645 13.2935 5.19311 13.375 5.39816 13.375C5.60322 13.375 5.79987 13.2935 5.94487 13.1485L9 10.0934L12.0551 13.1485C12.2001 13.2935 12.3968 13.375 12.6018 13.375C12.8069 13.375 13.0036 13.2935 13.1485 13.1485C13.2935 13.0036 13.375 12.8069 13.375 12.6018C13.375 12.3968 13.2935 12.2001 13.1485 12.0551L10.0915 9Z" fill="white"/>
</svg>
