<svg width="18" height="16" viewBox="0 0 18 16" fill="none" xmlns="http://www.w3.org/2000/svg">
<path d="M18.0007 15.1998V2.24014C18.0007 1.84232 17.6784 1.52002 17.2809 1.52002H13.6808C13.2831 1.52002 12.9609 1.84232 12.9609 2.24014V15.1998C12.9609 15.5977 13.2831 15.9199 13.6808 15.9199H17.2808C17.6784 15.9199 18.0007 15.5977 18.0007 15.1998Z" fill="#929DAB"/>
<path d="M6.83926 15.9199H10.7992C11.1969 15.9199 11.5192 15.5977 11.5192 15.1998V0.800049C11.5192 0.402232 11.1969 0.0800781 10.7992 0.0800781H6.83926C6.44144 0.0800781 6.11914 0.402232 6.11914 0.800049V15.1998C6.11914 15.5977 6.44129 15.9199 6.83926 15.9199Z" fill="#929DAB"/>
<path d="M0.71997 5.84009C0.322154 5.84009 0 6.16224 0 6.56006V15.1999C0 15.5978 0.322154 15.92 0.71997 15.92H4.31997C4.71779 15.92 5.03994 15.5978 5.03994 15.1999V6.56006C5.03994 6.16224 4.71779 5.84009 4.31997 5.84009H0.71997Z" fill="#929DAB"/>
</svg>
