<svg width="18" height="18" viewBox="0 0 18 18" fill="none" xmlns="http://www.w3.org/2000/svg">
<path d="M7.84199 14.684C9.36004 14.6837 10.8343 14.1755 12.0301 13.2403L15.7898 17L16.9991 15.7907L13.2395 12.031C14.1751 10.8351 14.6836 9.36043 14.684 7.84199C14.684 4.06949 11.6145 1 7.84199 1C4.06949 1 1 4.06949 1 7.84199C1 11.6145 4.06949 14.684 7.84199 14.684ZM7.84199 2.7105C10.672 2.7105 12.9735 5.01197 12.9735 7.84199C12.9735 10.672 10.672 12.9735 7.84199 12.9735C5.01197 12.9735 2.7105 10.672 2.7105 7.84199C2.7105 5.01197 5.01197 2.7105 7.84199 2.7105Z" fill="#929DAB"/>
</svg>
