<svg width="12" height="12" viewBox="0 0 12 12" fill="none" xmlns="http://www.w3.org/2000/svg">
<rect width="12" height="12" rx="4" fill="#EFF5FF"/>
<path d="M6.72831 5.99992L8.76506 3.96316C8.86173 3.86667 8.9161 3.73573 8.91622 3.59915C8.91634 3.46256 8.8622 3.33153 8.76571 3.23486C8.66921 3.1382 8.53827 3.08383 8.40169 3.08371C8.26511 3.08359 8.13407 3.13773 8.03741 3.23422L6.00065 5.27098L3.9639 3.23422C3.86723 3.13756 3.73613 3.08325 3.59943 3.08325C3.46272 3.08325 3.33162 3.13756 3.23495 3.23422C3.13829 3.33089 3.08398 3.46199 3.08398 3.59869C3.08398 3.7354 3.13829 3.8665 3.23495 3.96316L5.27171 5.99992L3.23495 8.03667C3.13829 8.13334 3.08398 8.26444 3.08398 8.40114C3.08398 8.53785 3.13829 8.66895 3.23495 8.76562C3.33162 8.86228 3.46272 8.91658 3.59943 8.91658C3.73613 8.91658 3.86723 8.86228 3.9639 8.76562L6.00065 6.72886L8.03741 8.76562C8.13407 8.86228 8.26517 8.91658 8.40188 8.91658C8.53858 8.91658 8.66968 8.86228 8.76635 8.76562C8.86301 8.66895 8.91732 8.53785 8.91732 8.40114C8.91732 8.26444 8.86301 8.13334 8.76635 8.03667L6.72831 5.99992Z" fill="#091521"/>
</svg>
