<svg width="55" height="17" viewBox="0 0 55 17" fill="none" xmlns="http://www.w3.org/2000/svg">
<path fill-rule="evenodd" clip-rule="evenodd" d="M19.4614 16.9231L22.0657 0.846191H26.2307L23.6247 16.9231H19.4614Z" fill="white"/>
<path fill-rule="evenodd" clip-rule="evenodd" d="M39.7692 0.68843C38.8753 0.35615 37.4747 0 35.7253 0C31.2674 0 28.1266 2.22358 28.1 5.4104C28.0749 7.7662 30.3421 9.08056 32.0534 9.86478C33.8095 10.6682 34.4002 11.1807 34.3917 11.8984C34.3806 12.9973 32.9892 13.4995 31.6923 13.4995C29.8864 13.4995 28.9272 13.251 27.4455 12.6389L26.8639 12.3782L26.2307 16.0484C27.2847 16.506 29.2336 16.9027 31.2566 16.9231C35.9996 16.9231 39.0782 14.7249 39.1134 11.3217C39.1306 9.45681 37.9282 8.03724 35.3255 6.86734C33.7483 6.10888 32.7824 5.60261 32.7926 4.83472C32.7926 4.1532 33.61 3.42456 35.3765 3.42456C36.8519 3.40195 37.9205 3.72041 38.7532 4.05269L39.1575 4.24176L39.7692 0.68843Z" fill="white"/>
<path fill-rule="evenodd" clip-rule="evenodd" d="M50.53 0.846191H47.0705C45.9988 0.846191 45.1968 1.13248 44.726 2.18023L38.0769 16.9231H42.7784C42.7784 16.9231 43.5471 14.9407 43.7211 14.5056C44.2349 14.5056 48.8017 14.5123 49.4546 14.5123C49.5886 15.0754 49.9995 16.9231 49.9995 16.9231H54.1538L50.53 0.846191ZM45.0095 11.2149C45.3795 10.288 46.7933 6.71789 46.7933 6.71789C46.7665 6.76073 47.1608 5.78662 47.3867 5.18262L47.6894 6.56966C47.6894 6.56966 48.5468 10.4097 48.7258 11.2149H45.0095Z" fill="white"/>
<path fill-rule="evenodd" clip-rule="evenodd" d="M15.7343 0.846191L11.5071 11.8271L11.0568 9.59534C10.2699 7.02279 7.81816 4.23586 5.0769 2.84069L8.9421 16.9231L13.5104 16.9179L20.3077 0.846191H15.7343Z" fill="white"/>
<path fill-rule="evenodd" clip-rule="evenodd" d="M6.79352 0H0.0534645L0 0.355971C5.24393 1.77232 8.71354 5.19501 10.1538 9.30769L8.68827 1.44453C8.43505 0.360888 7.70124 0.0376949 6.79352 0Z" fill="white"/>
</svg>
