<svg width="36" height="36" viewBox="0 0 36 36" fill="none" xmlns="http://www.w3.org/2000/svg">
<rect width="36" height="36" rx="18" fill="#091521"/>
<path fill-rule="evenodd" clip-rule="evenodd" d="M26.1141 21.4702C26.0945 21.4273 26.0762 21.3917 26.0592 21.3632C25.7781 20.8496 25.241 20.2191 24.4482 19.4716L24.4314 19.4545L24.423 19.4461L24.4146 19.4375H24.406C24.0462 19.0894 23.8184 18.8553 23.7229 18.7355C23.5483 18.5073 23.5092 18.2762 23.6046 18.0421C23.6721 17.8653 23.9253 17.4917 24.3638 16.9211C24.5944 16.6186 24.7771 16.3762 24.912 16.1936C25.8848 14.8812 26.3066 14.0425 26.1772 13.6773L26.127 13.5919C26.0932 13.5405 26.006 13.4935 25.8656 13.4507C25.7249 13.4079 25.545 13.4008 25.3257 13.4293L22.8965 13.4464C22.8572 13.4322 22.801 13.4335 22.7278 13.4507C22.6547 13.4678 22.6181 13.4764 22.6181 13.4764L22.5758 13.4979L22.5423 13.5236C22.5141 13.5406 22.4832 13.5706 22.4494 13.6134C22.4158 13.6561 22.3877 13.7061 22.3653 13.7632C22.1008 14.4536 21.8001 15.0955 21.4627 15.6889C21.2546 16.0427 21.0635 16.3493 20.889 16.609C20.7147 16.8685 20.5685 17.0598 20.4505 17.1823C20.3324 17.305 20.2257 17.4033 20.1299 17.4776C20.0343 17.5519 19.9613 17.5833 19.9108 17.5718C19.8601 17.5603 19.8124 17.5489 19.7672 17.5375C19.6886 17.4861 19.6253 17.4163 19.5776 17.3278C19.5296 17.2394 19.4974 17.1281 19.4805 16.994C19.4637 16.8598 19.4538 16.7444 19.451 16.6474C19.4483 16.5504 19.4496 16.4134 19.4553 16.2365C19.4611 16.0595 19.4637 15.9398 19.4637 15.877C19.4637 15.6602 19.4679 15.4248 19.4763 15.1709C19.4848 14.917 19.4916 14.7158 19.4974 14.5676C19.5031 14.4192 19.5058 14.2623 19.5058 14.0968C19.5058 13.9313 19.4959 13.8015 19.4763 13.7073C19.4569 13.6133 19.4271 13.522 19.3879 13.4334C19.3485 13.345 19.2908 13.2766 19.215 13.228C19.1391 13.1795 19.0448 13.141 18.9325 13.1124C18.6344 13.044 18.2549 13.007 17.7937 13.0012C16.7478 12.9898 16.0758 13.0584 15.7778 13.2067C15.6597 13.2694 15.5529 13.355 15.4573 13.4634C15.3561 13.589 15.342 13.6575 15.4151 13.6688C15.7525 13.7201 15.9914 13.8428 16.132 14.0367L16.1826 14.1395C16.222 14.2137 16.2614 14.345 16.3008 14.5333C16.3401 14.7215 16.3655 14.9298 16.3766 15.1579C16.4047 15.5745 16.4047 15.9311 16.3766 16.2278C16.3485 16.5246 16.3219 16.7556 16.2965 16.9211C16.2711 17.0866 16.2332 17.2207 16.1826 17.3233C16.132 17.426 16.0983 17.4888 16.0814 17.5116C16.0645 17.5344 16.0504 17.5487 16.0393 17.5544C15.9662 17.5828 15.8902 17.5973 15.8115 17.5973C15.7327 17.5973 15.6372 17.5573 15.5247 17.4774C15.4123 17.3974 15.2956 17.2877 15.1747 17.1478C15.0538 17.008 14.9174 16.8126 14.7656 16.5615C14.6138 16.3105 14.4563 16.0138 14.2933 15.6715L14.1583 15.4232C14.074 15.2635 13.9588 15.0309 13.8126 14.7257C13.6663 14.4204 13.537 14.125 13.4246 13.8397C13.3796 13.7199 13.3121 13.6287 13.2222 13.5659L13.1799 13.5402C13.1519 13.5174 13.1068 13.4932 13.045 13.4674C12.9831 13.4417 12.9186 13.4232 12.851 13.4118L10.5399 13.4289C10.3038 13.4289 10.1435 13.4831 10.0591 13.5916L10.0254 13.6429C10.0085 13.6714 10 13.7171 10 13.7799C10 13.8426 10.0169 13.9197 10.0506 14.0109C10.388 14.8155 10.7549 15.5915 11.1513 16.3389C11.5477 17.0864 11.8922 17.6885 12.1845 18.1447C12.4769 18.6013 12.7749 19.0321 13.0786 19.4371C13.3823 19.8423 13.5833 20.1019 13.6816 20.216C13.7801 20.3303 13.8574 20.4157 13.9136 20.4727L14.1245 20.6781C14.2595 20.8151 14.4577 20.9791 14.7191 21.1702C14.9807 21.3615 15.2702 21.5497 15.5879 21.7353C15.9057 21.9206 16.2754 22.0718 16.6971 22.1888C17.1189 22.3058 17.5293 22.3528 17.9286 22.3301H18.8986C19.0953 22.3129 19.2444 22.2501 19.3457 22.1418L19.3792 22.0989C19.4018 22.0648 19.4229 22.0119 19.4424 21.9407C19.4622 21.8694 19.472 21.7908 19.472 21.7054C19.4662 21.4601 19.4846 21.239 19.5267 21.0421C19.5687 20.8454 19.6166 20.697 19.6702 20.5971C19.7238 20.4973 19.7842 20.413 19.8515 20.3447C19.9189 20.2763 19.967 20.2348 19.9951 20.2206C20.0232 20.2062 20.0455 20.1965 20.0624 20.1906C20.1973 20.145 20.3562 20.1892 20.5391 20.3234C20.7219 20.4575 20.8933 20.623 21.0537 20.8198C21.2139 21.0168 21.4065 21.2377 21.6314 21.483C21.8564 21.7284 22.0531 21.9109 22.2218 22.0309L22.3904 22.1336C22.503 22.2021 22.6492 22.2649 22.8292 22.3219C23.0089 22.3789 23.1663 22.3932 23.3014 22.3647L25.4606 22.3305C25.6742 22.3305 25.8403 22.2946 25.9582 22.2234C26.0763 22.1521 26.1465 22.0736 26.1691 21.9881C26.1917 21.9025 26.1929 21.8055 26.1734 21.6969C26.1534 21.5887 26.1337 21.513 26.1141 21.4702Z" fill="white"/>
</svg>
