<svg width="108" height="21" viewBox="0 0 108 21" fill="none" xmlns="http://www.w3.org/2000/svg">
<path fill-rule="evenodd" clip-rule="evenodd" d="M7.68577 1.58276H6.68745C5.17777 1.58276 3.71704 2.58109 3.71704 5.47879C3.71704 8.27882 5.05593 9.17987 6.68745 9.17987H7.68577V1.58276ZM6.12739 10.7383L3.15698 17.41H0.989746L4.25279 10.2755C2.71834 9.49628 1.69564 8.08409 1.69564 5.47881C1.69564 1.82627 4.00889 0 6.76058 0H9.56081V17.41H7.6858V10.7383H6.12739Z" fill="white"/>
<path fill-rule="evenodd" clip-rule="evenodd" d="M45.9901 11.2741C45.9901 7.42659 47.4758 4.96753 50.3492 4.96753C51.4446 4.96753 52.0778 5.25976 52.6135 5.60032L52.3456 7.40262C51.8343 6.96398 51.1038 6.55031 50.3246 6.55031C48.9609 6.55031 47.9872 8.08415 47.9872 11.1766C47.9872 14.2445 48.7174 15.9981 50.2515 15.9981C51.1767 15.9981 51.883 15.6327 52.3212 15.2432L52.7595 16.6552C52.1021 17.2151 51.3229 17.5804 50.2027 17.5804C47.5729 17.5804 45.9901 15.4623 45.9901 11.2741ZM40.4386 11.298V17.41H38.5392V5.1377H40.4386V10.8113L43.3848 5.1377H45.3086L42.2648 10.9087L45.7466 17.41H43.677L40.4386 11.298ZM31.5022 10.1538H34.6434C34.6434 8.05968 34.3024 6.52563 33.2068 6.52563C32.0379 6.52563 31.624 7.9622 31.5022 10.1538ZM33.5963 17.5804C31.0639 17.5804 29.5057 15.5598 29.5057 11.7858C29.5057 7.84066 30.6015 4.96753 33.2068 4.96753C35.2522 4.96753 36.5915 6.50137 36.5915 10.6649V11.7123H31.4778C31.4778 14.4884 32.257 15.9493 33.7667 15.9493C34.8381 15.9493 35.6904 15.4623 36.1774 15.1216L36.6159 16.5817C35.8367 17.1909 34.8138 17.5804 33.5963 17.5804ZM25.5122 6.67163H23.3937V6.89116C23.3937 9.47206 23.2721 13.2458 22.2494 15.8515H25.5122V6.67163ZM28.361 19.8208H26.6568V17.41H21.3971V19.8208H19.6929V15.8516H20.4477C21.5675 13.2459 21.6893 9.4478 21.6893 6.18476V5.1377H27.3873V15.8516H28.361V19.8208ZM18.597 5.1377V17.41H16.722V11.9073H13.8974V17.41H11.998V5.1377H13.8974V10.3482H16.722V5.1377H18.597Z" fill="white"/>
<path fill-rule="evenodd" clip-rule="evenodd" d="M64.3848 0.998291H60.6108C60.5375 5.40547 60.4156 8.76578 60.2209 11.274C60.0018 13.8791 59.6121 15.6078 58.9549 16.412H64.3848V0.998291ZM65.6753 17.41H58.2244L58.0536 20.3077H57.1042V16.4121H57.6156C58.4679 15.7054 58.8816 13.7576 59.1251 11.274C59.3686 8.69311 59.4417 4.84542 59.515 0H65.6022V16.4121H66.7959V20.3077H65.8455L65.6753 17.41Z" fill="white"/>
<path fill-rule="evenodd" clip-rule="evenodd" d="M69.1592 10.5674H73.616C73.8103 7.30497 72.8366 5.84424 71.5947 5.84424C70.3042 5.84424 69.2567 7.49972 69.1592 10.5674ZM71.8379 16.6553C73.469 16.6553 74.3213 15.3408 74.3213 15.3408L74.6868 16.2652C74.6868 16.2652 73.7616 17.6532 71.8139 17.6532C69.2088 17.6532 68.0151 15.2912 68.0151 11.2742C68.0151 7.25627 69.5246 4.89429 71.5948 4.89429C73.7129 4.89429 75.0761 7.11047 74.6868 11.4693H69.1353C69.184 14.8292 70.0603 16.6553 71.8379 16.6553Z" fill="white"/>
<path fill-rule="evenodd" clip-rule="evenodd" d="M82.1881 11.4932H77.9998V17.41H76.8557V5.1377H77.9998V10.5674H82.1881V5.1377H83.3322V17.41H82.1881V11.4932Z" fill="white"/>
<path fill-rule="evenodd" clip-rule="evenodd" d="M87.1816 10.592V16.5089H87.9125C89.641 16.5089 90.81 15.6572 90.81 13.5385C90.81 11.4691 89.7875 10.592 88.0339 10.592H87.1816ZM86.0381 5.1377H87.1816V9.69129H88.0835C90.4207 9.69129 91.9304 10.9575 91.9304 13.5144C91.9304 16.1195 90.3232 17.41 88.01 17.41H86.0381V5.1377Z" fill="white"/>
<path fill-rule="evenodd" clip-rule="evenodd" d="M95.0236 6.08769V17.41H93.9041V5.1377H99.0902V6.08769H95.0236Z" fill="white"/>
<path fill-rule="evenodd" clip-rule="evenodd" d="M106.568 8.86334C106.568 8.23015 106.616 7.69443 106.665 7.18309H106.592C106.421 7.7188 106.202 8.23015 105.935 8.76587L101.941 17.41H100.968V5.1377H102.039V13.66C102.039 14.3174 101.989 14.8531 101.941 15.3888H102.014C102.185 14.8291 102.428 14.2934 102.672 13.7577L106.665 5.1377H107.663V17.41H106.568V8.86334Z" fill="white"/>
</svg>
